<svg xmlns="http://www.w3.org/2000/svg" viewBox="0 0 400 260" role="img" aria-label="Braces &amp; Aligners">
  <defs>
    <linearGradient id="g" x1="0" y1="0" x2="1" y2="1"><stop offset="0" stop-color="#5bd0b8"/><stop offset="1" stop-color="#2b6cb0"/></linearGradient>
    <filter id="s" x="-30%" y="-30%" width="160%" height="160%"><feDropShadow dx="0" dy="6" stdDeviation="10" flood-color="#0a2540" flood-opacity="0.18"/></filter>
  </defs>
  <rect width="400" height="260" fill="url(#g)"/>
  <circle cx="60" cy="40" r="70" fill="#fff" opacity=".10"/>
  <circle cx="350" cy="220" r="90" fill="#fff" opacity=".08"/>
  <circle cx="150" cy="135" r="78" fill="#fff" opacity=".22"/>
  <g filter="url(#s)"><path transform="translate(104 82.1) scale(1.15)" fill="#ffffff" d="M40 2C22 2 9 16 9 35c0 14 5 38 13 49 4 5 9 4 10-3 1-9 1-19 8-19s7 10 8 19c1 7 6 8 10 3 8-11 13-35 13-49C71 16 58 2 40 2Z"/></g>
  <path transform="translate(110 89) scale(1)" fill="url(#g)" d="M40 2C22 2 9 16 9 35c0 14 5 38 13 49 4 5 9 4 10-3 1-9 1-19 8-19s7 10 8 19c1 7 6 8 10 3 8-11 13-35 13-49C71 16 58 2 40 2Z"/>
  <g stroke="#fff" stroke-width="5" opacity=".9"><line x1="270" y1="110" x2="330" y2="110"/><rect x="282" y="100" width="14" height="20" rx="3" fill="#fff"/><rect x="306" y="100" width="14" height="20" rx="3" fill="#fff"/></g>
  <circle cx="332" cy="60" r="26" fill="#fff" opacity=".95"/>
  <g transform="translate(320,48)" fill="none" stroke="#2b6cb0" stroke-width="2" stroke-linecap="round" stroke-linejoin="round"><path d="M5 12h14"/><rect x="7.5" y="9" width="3.5" height="6" rx="1"/><rect x="13" y="9" width="3.5" height="6" rx="1"/></g>
</svg>